<svg xmlns="http://www.w3.org/2000/svg" width="900" height="190" viewBox="0 0 900 190" role="img" aria-label="Street-pattern classifier workflow">
    <defs><marker id="arrow" markerWidth="10" markerHeight="10" refX="8" refY="3" orient="auto"><path d="M0,0 L0,6 L9,3 z" fill="#0969da"/></marker></defs>
    <rect width="100%" height="100%" fill="white"/>
    <text x="30" y="32" font-size="20" font-weight="700" fill="#24292f">Street-pattern classifier workflow</text>
    <path d="M220 105 L288 105" stroke="#0969da" stroke-width="2" fill="none" marker-end="url(#arrow)"/>
<text x="260.0" y="95" text-anchor="middle" font-size="12" fill="#0969da">extract</text>
<path d="M450 105 L518 105" stroke="#0969da" stroke-width="2" fill="none" marker-end="url(#arrow)"/>
<text x="490.0" y="95" text-anchor="middle" font-size="12" fill="#0969da">train</text>
<path d="M680 105 L708 105" stroke="#0969da" stroke-width="2" fill="none" marker-end="url(#arrow)"/>
<text x="700.0" y="95" text-anchor="middle" font-size="12" fill="#0969da">predict</text>
<rect x="70" y="70" width="150" height="70" rx="10" fill="#f6f8fa" stroke="#57606a"/>
<text x="145.0" y="100" text-anchor="middle" font-size="16" font-weight="700">blocks</text>
<text x="145.0" y="123" text-anchor="middle" font-size="12" fill="#57606a">graphs</text>
<rect x="300" y="70" width="150" height="70" rx="10" fill="#f6f8fa" stroke="#57606a"/>
<text x="375.0" y="100" text-anchor="middle" font-size="16" font-weight="700">features</text>
<text x="375.0" y="123" text-anchor="middle" font-size="12" fill="#57606a">morphology</text>
<rect x="530" y="70" width="150" height="70" rx="10" fill="#f6f8fa" stroke="#57606a"/>
<text x="605.0" y="100" text-anchor="middle" font-size="16" font-weight="700">model</text>
<text x="605.0" y="123" text-anchor="middle" font-size="12" fill="#57606a">classifier</text>
<rect x="720" y="70" width="130" height="70" rx="10" fill="#f6f8fa" stroke="#57606a"/>
<text x="785.0" y="100" text-anchor="middle" font-size="16" font-weight="700">classes</text>
<text x="785.0" y="123" text-anchor="middle" font-size="12" fill="#57606a">pattern labels</text>
  </svg>
